# xmcd CD database file
#
# Track frame offsets:
#	151
#	17010
#	35579
#	56170
#	75041
#	91884
#	110069
#	124279
#	144522
#	167160
#	188422
#	212588
#	235199
#	258040
#	278172
#	299754
#	317511
#
# Disc length: 4589 seconds
#
# Revision: 1
# Processed by: cddbd v1.5.1PL0 Copyright (c) Steve Scherf et al.
# Submitted via: CDex 1.51
#
DISCID=e911eb11
DTITLE=國府田マリ子 - 私的セレクション
DYEAR=2000
DGENRE=Vocal
TTITLE0=心の矢印
TTITLE1=wish
TTITLE2=ハチミツ
TTITLE3=淋しがりやの恋
TTITLE4=待っていました
TTITLE5=大切に思えるものが一緒ならいいよね
TTITLE6=コバルト
TTITLE7=Looking For
TTITLE8=唇にPromise
TTITLE9=雨のちスペシャル
TTITLE10=風がとまらない
TTITLE11=Made in HEAVEN 〜愛のプライド〜
TTITLE12=笑顔で愛してる
TTITLE13=夢はひとりみるものじゃない
TTITLE14=私が天使だったらいいのに
TTITLE15=本気にしないで
TTITLE16=みみかきをしていると
EXTD=YEAR: 2000
EXTT0=
EXTT1=
EXTT2=
EXTT3=
EXTT4=
EXTT5=
EXTT6=
EXTT7=
EXTT8=
EXTT9=
EXTT10=
EXTT11=
EXTT12=
EXTT13=
EXTT14=
EXTT15=
EXTT16=
PLAYORDER=
